<svg width="56" height="50" viewBox="0 0 56 50" fill="none" xmlns="http://www.w3.org/2000/svg">
<path d="M3.30113 28.512L3.49523 28.2069L15.2015 9.8939C15.3726 9.6257 15.7748 9.65351 15.9043 9.94471C17.8599 14.3277 19.5475 19.7786 18.7569 23.1721C18.4194 24.5683 17.4947 26.4593 16.4544 28.2069C16.3204 28.4612 16.1724 28.7109 16.0152 28.9513C15.9413 29.0622 15.8164 29.127 15.6823 29.127H3.64323C3.31953 29.127 3.13003 28.7756 3.30113 28.512Z" fill="white"/>
<path d="M55.48 31.9149V34.8137C55.48 34.9801 55.3783 35.1281 55.2303 35.1928C54.3242 35.5812 51.2219 37.0052 49.932 38.799C46.6402 43.3807 44.1251 49.932 38.5031 49.932H15.0489C6.7362 49.932 0 43.1727 0 34.8322V34.564C0 34.3421 0.180301 34.1618 0.402201 34.1618H13.477C13.7359 34.1618 13.9255 34.4022 13.9024 34.6565C13.8099 35.5072 13.9671 36.3764 14.3693 37.167C15.146 38.7435 16.755 39.7283 18.4933 39.7283H24.966V34.675H18.5673C18.239 34.675 18.0449 34.2959 18.2344 34.0277C18.3038 33.9214 18.3824 33.8104 18.4656 33.6856C19.0712 32.8257 19.9358 31.4895 20.7957 29.9684C21.3829 28.9421 21.9516 27.8463 22.4093 26.746C22.5018 26.5472 22.5757 26.3438 22.6497 26.1449C22.7745 25.7936 22.904 25.4653 22.9964 25.1371C23.0889 24.8597 23.1629 24.5684 23.2369 24.2956C23.4542 23.3617 23.5466 22.3723 23.5466 21.3459C23.5466 20.9437 23.5281 20.523 23.4911 20.1207C23.4727 19.6815 23.4172 19.2423 23.3617 18.8031C23.3247 18.4147 23.2554 18.031 23.1814 17.6288C23.0889 17.0416 22.9595 16.4591 22.8115 15.8719L22.7607 15.65C22.6497 15.2478 22.5572 14.864 22.4278 14.4618C22.0625 13.1996 21.6418 11.9698 21.198 10.8186C21.0362 10.3609 20.8512 9.9217 20.6663 9.4825C20.3935 8.8213 20.1161 8.2203 19.8618 7.6516C19.7324 7.3927 19.6214 7.1569 19.5105 6.9165C19.3856 6.6437 19.2562 6.371 19.1267 6.112C19.0343 5.9132 18.9279 5.7283 18.8539 5.5434L18.0634 4.0824C17.9524 3.8836 18.1373 3.6478 18.3546 3.7079L23.3016 5.0487H23.3155C23.3247 5.0487 23.3293 5.0533 23.334 5.0533L23.9858 5.2336L24.7025 5.437L24.966 5.511V2.5706C24.966 1.1512 26.1033 0 27.5088 0C28.2116 0 28.8496 0.286599 29.3073 0.753599C29.765 1.2206 30.0517 1.8586 30.0517 2.5706V6.935L30.5787 7.0829C30.6203 7.0968 30.6619 7.1153 30.6989 7.143C30.8284 7.2401 31.0133 7.3835 31.2491 7.5591C31.434 7.7071 31.6328 7.8874 31.8733 8.0723C32.3495 8.4561 32.9181 8.9508 33.5423 9.5194C33.7087 9.6628 33.8705 9.8107 34.0185 9.9587C34.8229 10.7076 35.7245 11.5861 36.5844 12.557C36.8248 12.8297 37.0606 13.1071 37.301 13.3984C37.5415 13.6943 37.7957 13.9856 38.0177 14.2769C38.3089 14.6652 38.6233 15.0674 38.8961 15.4882C39.0255 15.687 39.1735 15.8904 39.2983 16.0892C39.6497 16.6209 39.9595 17.1711 40.2554 17.7212C40.3802 17.9755 40.5096 18.2529 40.6206 18.5257C40.9488 19.2608 41.2078 20.0098 41.3742 20.7588C41.4251 20.9206 41.462 21.0963 41.4805 21.2535V21.2904C41.536 21.5124 41.5545 21.7482 41.573 21.9886C41.647 22.756 41.61 23.5235 41.4435 24.2956C41.3742 24.6239 41.2817 24.9336 41.1708 25.2619C41.0598 25.5763 40.9488 25.9045 40.8055 26.2143C40.5281 26.8569 40.1999 27.4996 39.8115 28.1006C39.6867 28.3225 39.5387 28.5583 39.3908 28.7802C39.229 29.016 39.0625 29.238 38.9146 29.4553C38.7112 29.7327 38.4939 30.0239 38.2719 30.2828C38.0731 30.5556 37.8697 30.8284 37.6478 31.0688C37.338 31.434 37.0421 31.7808 36.7324 32.1137C36.5474 32.331 36.3486 32.5529 36.1452 32.7517C35.9464 32.9736 35.743 33.1724 35.558 33.3573C35.2483 33.6671 34.9894 33.9075 34.7721 34.1063L34.2635 34.5733C34.1895 34.638 34.0924 34.675 33.9907 34.675H30.0517V39.7283H35.0079C36.1175 39.7283 37.1716 39.3353 38.0223 38.6141C38.3135 38.3598 39.585 37.2594 41.0876 35.5997C41.1384 35.5442 41.2031 35.5026 41.2771 35.4841L54.9668 31.5265C55.2211 31.4525 55.48 31.6467 55.48 31.9149Z" fill="white"/>
</svg>
