<svg width="1186" height="209" viewBox="0 0 1186 209" fill="none" xmlns="http://www.w3.org/2000/svg">
<path d="M0.23 201.93C0.23 204.23 2.3 206.3 4.6 206.3C6.9 206.3 31.97 191.3 31.97 191.3C34 190 36.34 189.23 36.34 186.93V116.14H36.57L127.42 207.45C127.88 207.91 129.72 208.6 130.41 208.6H134.09C136.39 208.6 138.46 206.76 138.46 204.46V49.67C138.46 47.37 136.39 45.3 134.09 45.3H106.49C103.96 45.3 102.12 47.37 102.12 49.67V131.32H101.89L10.12 43H4.37C2.07 43 0 44.84 0 47.14L0.23 201.93Z" fill="white"/>
<path d="M171.221 201.93C171.221 204.23 173.061 206.3 175.591 206.3C178.121 206.3 202.731 191.3 202.731 191.3C205 190 207.101 189.23 207.101 186.93V146.04H244.541C246.841 146.04 248 143.5 248.911 141.67L263.911 116.6C263.911 114.3 261.841 112.23 259.541 112.23H207.101V79.11H270.811C273.341 79.11 275.181 77.04 275.181 74.74V49.67C275.181 47.37 273.341 45.3 270.811 45.3H175.591C173.061 45.3 171.221 47.37 171.221 49.67V201.93Z" fill="white"/>
<path d="M307.72 201.93C307.72 204.23 309.79 206.3 312.09 206.3C314.39 206.3 339.69 191.3 339.69 191.3C342 190 344.06 189.23 344.06 186.93V79.11H361.95C364.48 79.11 364.5 77 366.32 74.74C366.32 74.74 381.32 51.97 381.32 49.67C381.32 47.37 379.48 45.3 376.95 45.3H274.83C272.3 45.3 270.46 47.37 270.46 49.67V74.74C270.46 77.04 272.3 79.11 274.83 79.11H307.72V201.93Z" fill="white"/>
<path d="M663.014 201.93C663.014 204.23 665.084 206.3 667.384 206.3C669.684 206.3 694.984 191.3 694.984 191.3C697.5 190 699.354 189.23 699.354 186.93V79.11H717.244C719.774 79.11 720 77 721.5 75C721.5 75 736.614 51.97 736.614 49.67C736.614 47.37 734.774 45.3 732.244 45.3H630.124C627.594 45.3 625.754 47.37 625.754 49.67V74.74C625.754 77.04 627.594 79.11 630.124 79.11H663.014V201.93Z" fill="white"/>
<path d="M734.46 206.3H759.76C764.36 206.3 766.89 203.54 768.04 200.78L776.32 182.38H838.88L847.16 200.55C849.23 204.92 851.07 206.3 855.21 206.3H880.74C884.19 206.3 886.03 203.31 884.65 200.32L812.66 45.53C811.97 44.15 810.36 43 808.75 43H806.45C804.84 43 803.23 44.15 802.54 45.53L730.55 200.32C729.17 203.31 731.01 206.3 734.46 206.3ZM790.12 151.1L807.37 113.15H807.6L825.08 151.1H790.12Z" fill="white"/>
<path d="M903.535 200.78C903.535 203.77 905.835 206.3 909.055 206.3C912.275 206.3 935.965 191.3 935.965 191.3C938.5 190 941.485 188.77 941.485 185.78V132.24L994.615 204.46C995.075 205.15 997.145 206.07 998.755 206.07H1030.49C1034.86 206.07 1037.39 201.01 1034.86 197.56L976.215 121.2L1030.03 53.81C1032.56 50.36 1030.26 45.3 1025.89 45.3H996.915C995.535 45.3 993.465 46.45 992.545 47.6L941.485 111.31V50.82C941.485 47.83 938.955 45.3 935.965 45.3H909.055C905.835 45.3 903.535 47.83 903.535 50.82V200.78Z" fill="white"/>
<path d="M1054.87 144.66C1054.87 179.62 1084.08 208.6 1120.19 208.6C1156.53 208.6 1185.97 179.62 1185.97 144.66V49.67C1185.97 47.37 1183.9 45.3 1181.6 45.3H1153.31C1150.78 45.3 1148.94 47.37 1148.94 49.67V142.82C1148.94 158.92 1136.75 171.8 1120.19 171.8C1103.86 171.8 1091.9 158.92 1091.9 142.82V49.67C1091.9 47.37 1090.06 45.3 1087.53 45.3H1059.24C1056.94 45.3 1054.87 47.37 1054.87 49.67V144.66Z" fill="white"/>
<path d="M574 97C574 104.732 567.732 111 560 111C552.268 111 546 104.732 546 97C546 89.268 552.268 83 560 83C567.732 83 574 89.268 574 97Z" fill="white"/>
<path d="M451 126.03C451 172.03 487.57 208.6 533.57 208.6C579.57 208.6 616.37 172.03 616.37 126.03C616.37 80.03 579.57 43 533.57 43C487.57 43 451 80.03 451 126.03ZM487.8 126.03C487.8 100.73 508.5 79.8 533.57 79.8C558.87 79.8 579.57 100.73 579.57 126.03C579.57 151.1 558.87 171.8 533.57 171.8C508.5 171.8 487.8 151.1 487.8 126.03Z" fill="white"/>
<path d="M553 126C553 136.493 544.493 145 534 145C523.507 145 515 136.493 515 126C515 115.507 523.507 107 534 107C544.493 107 553 115.507 553 126Z" fill="white" fill-opacity="0.3"/>
<path fill-rule="evenodd" clip-rule="evenodd" d="M533 -2.62268e-07C536.314 -1.17422e-07 539 3.41892 539 7.63636L539 48.3636C539 52.5811 536.314 56 533 56C529.686 56 527 52.5811 527 48.3636L527 7.63636C527 3.41892 529.686 -4.07115e-07 533 -2.62268e-07Z" fill="white"/>
<path fill-rule="evenodd" clip-rule="evenodd" d="M588.011 14.3926C590.881 16.0494 591.631 20.1224 589.687 23.4897L570.912 56.0079C568.968 59.3753 565.066 60.7619 562.196 59.1051C559.326 57.4482 558.576 53.3753 560.52 50.0079L579.295 17.4897C581.239 14.1224 585.141 12.7357 588.011 14.3926Z" fill="white"/>
<path fill-rule="evenodd" clip-rule="evenodd" d="M476.954 15.7172C479.701 13.8644 483.823 15.1726 486.161 18.6392L506.716 49.1189C509.054 52.5855 508.722 56.8976 505.975 58.7504C503.227 60.6032 499.105 59.2949 496.767 55.8284L476.212 25.3486C473.874 21.8821 474.206 17.5699 476.954 15.7172Z" fill="white"/>
</svg>
