<svg width="612" height="177" viewBox="0 0 612 177" fill="none" xmlns="http://www.w3.org/2000/svg">
<path d="M609.715 65.836V172.378H572.125V65.836H609.715ZM569.632 24.9221C569.632 22.0145 570.186 19.3146 571.294 16.8224C572.401 14.1917 573.925 11.9072 575.863 9.96881C577.801 8.03042 580.017 6.50741 582.509 5.39976C585.139 4.29211 587.909 3.73828 590.816 3.73828C593.724 3.73828 596.424 4.29211 598.916 5.39976C601.547 6.50741 603.831 8.03042 605.769 9.96881C607.708 11.9072 609.231 14.1917 610.339 16.8224C611.446 19.3146 612 22.0145 612 24.9221C612 27.8297 611.446 30.5988 610.339 33.2295C609.231 35.7217 607.708 37.937 605.769 39.8754C603.831 41.8138 601.547 43.3368 598.916 44.4445C596.424 45.5521 593.724 46.1059 590.816 46.1059C587.909 46.1059 585.139 45.5521 582.509 44.4445C580.017 43.3368 577.801 41.8138 575.863 39.8754C573.925 37.937 572.401 35.7217 571.294 33.2295C570.186 30.5988 569.632 27.8297 569.632 24.9221Z" fill="white"/>
<path fill-rule="evenodd" clip-rule="evenodd" d="M89.1033 143.163C112.325 140.166 130.477 120.992 131.891 97.3099H165.425C163.931 139.501 130.846 173.651 89.1033 176.826V143.163ZM79.054 143.434C53.5798 141.55 33.4975 120.284 33.4975 94.3287C33.4975 67.1335 55.5436 45.0874 82.7389 45.0874C96.5413 45.0874 109.017 50.7662 117.958 59.9148L140.306 34.9004C125.413 20.471 105.113 11.5898 82.7389 11.5898C37.0434 11.5898 0 48.6333 0 94.3287C0 138.789 35.0685 175.059 79.054 176.987V143.434Z" fill="white"/>
<path d="M89.1174 97.2754V176.531C131.698 173.462 165.279 139.214 165.477 97.2754H89.1174Z" fill="white"/>
<path fill-rule="evenodd" clip-rule="evenodd" d="M471.8 0H434.209V172.378H471.8V158.9V45.6839V0Z" fill="white"/>
<path fill-rule="evenodd" clip-rule="evenodd" d="M253.656 174.129C249.492 175.106 245.15 175.623 240.687 175.623C209.456 175.623 184.137 150.305 184.137 119.073C184.137 87.8417 209.456 62.5234 240.687 62.5234C245.15 62.5234 249.492 63.0404 253.656 64.0176V98.6553C249.908 96.2697 245.459 94.8877 240.687 94.8877C227.33 94.8877 216.502 105.716 216.502 119.073C216.502 132.431 227.33 143.259 240.687 143.259C245.459 143.259 249.908 141.877 253.656 139.491V174.129ZM263.704 170.742C283.464 161.926 297.237 142.108 297.237 119.073C297.237 96.0383 283.464 76.2201 263.704 67.4043V111.626C264.463 113.972 264.873 116.475 264.873 119.073C264.873 121.672 264.463 124.175 263.704 126.521V170.742Z" fill="white"/>
<path d="M263.704 62.5234H301.56V175.623H263.704V62.5234Z" fill="white"/>
<path fill-rule="evenodd" clip-rule="evenodd" d="M471.56 64.3403C458.528 67.5334 447.458 72.6122 447.458 72.6122C447.458 72.6122 470.729 125.453 470.729 112.295C470.729 109.551 471.006 107.094 471.56 104.923V64.3403ZM481.609 93.7476C483.971 92.9541 486.716 92.5573 489.846 92.5573C502.59 92.5573 508.962 99.1365 508.962 112.295L508.962 172.338H546.571L546.571 105.023C546.571 90.6182 541.861 79.8146 532.441 72.6122C522.883 65.4098 508.685 61.8086 489.846 61.8086C487.168 61.8086 484.396 62.0268 481.609 62.4011V93.7476Z" fill="white"/>
<path fill-rule="evenodd" clip-rule="evenodd" d="M394.527 136.975C390.282 140.662 384.738 142.895 378.674 142.895C365.316 142.895 354.488 132.066 354.488 118.709C354.488 105.352 365.316 94.5234 378.674 94.5234C385.69 94.5234 392.009 97.5116 396.427 102.285L418.265 77.8415C408.023 67.9171 394.062 61.8086 378.674 61.8086C347.248 61.8086 321.773 87.2838 321.773 118.709C321.773 150.134 347.248 175.609 378.674 175.609C393.111 175.609 406.292 170.233 416.324 161.372L394.527 136.975Z" fill="white"/>
</svg>
