<svg width="1094" height="155" viewBox="0 0 1094 155" fill="none" xmlns="http://www.w3.org/2000/svg">
<path d="M57.5901 154.23V115.82H38.2701V77.4099H19.6401V154.23H0.0900879V0.359863H38.7301V38.7699H57.8201V77.1799H76.6801V0.359863H96.2301V154.23H57.5901Z" fill="white"/>
<path d="M172.822 19.9099V57.8599H211.232V77.4099H172.822V154.23H134.182V0.359863H230.322V19.9099H172.822Z" fill="white"/>
<path d="M306.912 19.9099V154.23H268.272V19.9099H229.862V0.359863H345.322V19.9099H306.912Z" fill="white"/>
<path d="M517.822 134.91V154.23H440.772V134.91H421.682V19.6799H440.772V0.359863H517.822V19.6799H536.912V134.91H517.822ZM498.272 19.9099H460.322V134.68H498.272V19.9099Z" fill="white"/>
<path d="M632.82 19.9099V154.23H594.18V19.9099H555.77V0.359863H671.23V19.9099H632.82Z" fill="white"/>
<path d="M747.588 154.23V115.82H690.548V154.23H670.998V96.2699H690.088V38.7699H709.178V0.359863H748.048V38.7699H767.138V96.2699H786.228V154.23H747.588ZM728.498 39.2299H709.638V96.2699H728.498V39.2299Z" fill="white"/>
<path d="M900.996 154.23V115.82H881.906V77.4099H863.046V154.23H824.406V0.359863H863.046V57.8599H881.906V38.7699H900.996V19.6799H920.086V0.359863H939.636V19.9099H920.546V39.2299H901.456V77.1799H920.546V115.36H939.636V154.23H900.996Z" fill="white"/>
<path d="M1073.95 134.91V154.23H996.905V134.91H977.815V0.359863H1016.45V134.68H1054.4V0.359863H1093.04V134.91H1073.95Z" fill="white"/>
</svg>
