<svg width="98" height="28" viewBox="0 0 98 28" fill="none" xmlns="http://www.w3.org/2000/svg">
<path d="M13.1939 13.4242H25.9929C25.9929 14.7403 25.9381 15.9358 25.8284 17.0106C25.7188 18.0854 25.4994 19.0834 25.1704 20.0047C24.7098 21.2989 24.0846 22.4505 23.2949 23.4595C22.5053 24.4465 21.5731 25.2801 20.4982 25.96C19.4454 26.6181 18.2828 27.1226 17.0106 27.4736C15.7383 27.8245 14.4003 28 12.9965 28C11.0662 28 9.30043 27.6819 7.69918 27.0458C6.11986 26.4097 4.75989 25.5213 3.61927 24.3807C2.47865 23.2182 1.59029 21.8363 0.954171 20.235C0.318057 18.6118 0 16.8241 0 14.8719C0 12.9416 0.30709 11.1759 0.921269 9.57462C1.55738 7.95143 2.44575 6.56953 3.58637 5.42891C4.74892 4.28829 6.14179 3.39992 7.76498 2.76381C9.38817 2.12769 11.1978 1.80964 13.1939 1.80964C15.7822 1.80964 18.0525 2.36898 20.0047 3.48766C21.9569 4.60635 23.5033 6.33921 24.6439 8.68625L18.5241 11.2197C17.9538 9.85977 17.208 8.88367 16.2867 8.29142C15.3874 7.69918 14.3564 7.40306 13.1939 7.40306C12.2288 7.40306 11.3514 7.5895 10.5617 7.9624C9.77203 8.31336 9.09205 8.82883 8.52174 9.50881C7.97337 10.1669 7.53467 10.9675 7.20564 11.9107C6.89855 12.8539 6.74501 13.9068 6.74501 15.0693C6.74501 16.1222 6.87662 17.0983 7.13984 17.9976C7.42499 18.897 7.84176 19.6757 8.39013 20.3337C8.9385 20.9918 9.61849 21.5072 10.4301 21.8801C11.2417 22.2311 12.1849 22.4066 13.2597 22.4066C13.8958 22.4066 14.51 22.3408 15.1022 22.2092C15.6945 22.0556 16.2209 21.8253 16.6816 21.5182C17.1641 21.1892 17.5589 20.7724 17.866 20.2679C18.1731 19.7634 18.3815 19.1492 18.4912 18.4254H13.1939V13.4242Z" fill="black"/>
<path d="M35.0373 18.8202C35.0373 19.3686 35.136 19.8841 35.3334 20.3666C35.5308 20.8273 35.794 21.2331 36.1231 21.584C36.474 21.935 36.8798 22.2092 37.3404 22.4066C37.823 22.604 38.3385 22.7027 38.8869 22.7027C39.4133 22.7027 39.9068 22.604 40.3675 22.4066C40.85 22.2092 41.2558 21.935 41.5849 21.584C41.9358 21.2331 42.21 20.8273 42.4074 20.3666C42.6268 19.906 42.7364 19.4125 42.7364 18.886C42.7364 18.3596 42.6268 17.866 42.4074 17.4054C42.21 16.9228 41.9358 16.5061 41.5849 16.1551C41.2558 15.8041 40.85 15.53 40.3675 15.3325C39.9068 15.1351 39.4133 15.0364 38.8869 15.0364C38.3385 15.0364 37.823 15.1351 37.3404 15.3325C36.8798 15.53 36.474 15.8041 36.1231 16.1551C35.794 16.5061 35.5308 16.9119 35.3334 17.3725C35.136 17.8112 35.0373 18.2938 35.0373 18.8202ZM42.539 10.4301H48.5273V27.309H42.539V25.4336C41.2668 27.0349 39.5449 27.8355 37.3733 27.8355C36.145 27.8355 35.0153 27.6161 33.9844 27.1774C32.9534 26.7168 32.0541 26.0807 31.2864 25.2691C30.5187 24.4575 29.9155 23.5033 29.4768 22.4066C29.06 21.3098 28.8516 20.1144 28.8516 18.8202C28.8516 17.6138 29.06 16.4732 29.4768 15.3984C29.8935 14.3016 30.4748 13.3474 31.2206 12.5358C31.9664 11.7242 32.8547 11.0881 33.8857 10.6275C34.9166 10.1449 36.0572 9.90364 37.3075 9.90364C39.4133 9.90364 41.1571 10.6385 42.539 12.1081V10.4301Z" fill="black"/>
<path d="M65.3132 15.8919C64.2823 15.19 63.2403 14.839 62.1875 14.839C61.6171 14.839 61.0797 14.9377 60.5752 15.1351C60.0927 15.3325 59.6649 15.6177 59.292 15.9906C58.9192 16.3416 58.623 16.7693 58.4037 17.2738C58.2063 17.7564 58.1076 18.3047 58.1076 18.9189C58.1076 19.5112 58.2063 20.0595 58.4037 20.564C58.623 21.0466 58.9082 21.4743 59.2591 21.8472C59.632 22.1982 60.0707 22.4724 60.5752 22.6698C61.0797 22.8672 61.6171 22.9659 62.1875 22.9659C63.3061 22.9659 64.3481 22.5821 65.3132 21.8143V26.8813C63.8436 27.5174 62.4507 27.8355 61.1346 27.8355C59.9062 27.8355 58.7327 27.6271 57.614 27.2103C56.5173 26.7936 55.5412 26.2013 54.6857 25.4336C53.8522 24.6439 53.1832 23.7117 52.6786 22.6369C52.1741 21.5402 51.9219 20.3228 51.9219 18.9847C51.9219 17.6467 52.1632 16.4293 52.6457 15.3325C53.1283 14.2139 53.7864 13.2597 54.6199 12.47C55.4534 11.6584 56.4405 11.0333 57.5811 10.5946C58.7437 10.134 59.983 9.90364 61.2991 9.90364C62.7468 9.90364 64.0848 10.2107 65.3132 10.8249V15.8919Z" fill="black"/>
<path d="M69.5453 0H75.5006V12.5687C76.3122 11.5817 77.1348 10.9236 77.9683 10.5946C78.8018 10.2436 79.7779 10.0682 80.8966 10.0682C83.0243 10.0682 84.6256 10.6604 85.7004 11.8449C86.7971 13.0074 87.3455 14.5868 87.3455 16.5828V27.309H81.3902V18.7873C81.3902 17.9318 81.3244 17.2409 81.1928 16.7145C81.0611 16.188 80.8418 15.7822 80.5347 15.4971C80.0083 15.0364 79.3722 14.8061 78.6264 14.8061C77.6174 14.8061 76.8387 15.1132 76.2903 15.7274C75.7638 16.3196 75.5006 17.1751 75.5006 18.2938V27.309H69.5453V0Z" fill="black"/>
<path d="M97.3499 10.4301V27.309H91.3946V10.4301H97.3499ZM90.9997 3.9483C90.9997 3.48766 91.0875 3.05993 91.263 2.6651C91.4384 2.24834 91.6797 1.88641 91.9868 1.57932C92.2939 1.27223 92.6449 1.03094 93.0397 0.855465C93.4565 0.679984 93.8952 0.592245 94.3558 0.592245C94.8164 0.592245 95.2442 0.679984 95.639 0.855465C96.0558 1.03094 96.4177 1.27223 96.7248 1.57932C97.0319 1.88641 97.2731 2.24834 97.4486 2.6651C97.6241 3.05993 97.7118 3.48766 97.7118 3.9483C97.7118 4.40893 97.6241 4.84763 97.4486 5.2644C97.2731 5.65922 97.0319 6.01018 96.7248 6.31727C96.4177 6.62436 96.0558 6.86565 95.639 7.04113C95.2442 7.21661 94.8164 7.30435 94.3558 7.30435C93.8952 7.30435 93.4565 7.21661 93.0397 7.04113C92.6449 6.86565 92.2939 6.62436 91.9868 6.31727C91.6797 6.01018 91.4384 5.65922 91.263 5.2644C91.0875 4.84763 90.9997 4.40893 90.9997 3.9483Z" fill="black"/>
</svg>
