<svg width="579" height="236" viewBox="0 0 579 236" fill="none" xmlns="http://www.w3.org/2000/svg">
<path d="M391.029 130.416C389.215 126.157 386.773 122.666 383.843 119.803C380.843 116.941 377.494 114.567 373.726 112.751C369.959 110.936 366.121 109.47 362.284 108.353C358.447 107.236 354.679 106.398 351.121 105.77C347.493 105.141 344.423 104.513 341.772 103.954C338.213 103.116 334.585 102.279 330.748 101.371C326.98 100.533 323.492 99.4858 320.352 98.2291C317.213 96.9723 314.631 95.5061 312.608 93.621C310.585 91.8057 309.608 89.5017 309.608 86.8486C309.608 84.1955 310.445 81.8914 312.189 79.9365C313.864 78.0514 316.027 76.4456 318.608 75.2587C321.19 74.0019 323.911 73.1641 326.841 72.6055C329.353 72.1168 332.004 71.7677 334.167 71.6281H373.936C380.494 71.6281 385.796 66.3218 385.796 59.7589C385.796 53.1959 380.494 47.8896 373.936 47.8896H337.585C336.958 47.8896 336.399 47.8896 335.771 47.8896C335.353 47.8896 335.004 47.8896 334.585 47.8896H334.167C328.864 48.0293 323.352 48.5878 317.631 49.6351C311.352 50.8919 305.701 52.9864 300.607 55.9886C295.514 58.9909 291.258 63.1102 287.979 68.2768C284.7 73.4434 283.025 80.0063 283.025 87.8261C283.025 93.2021 283.932 97.88 285.746 101.86C287.56 105.839 290.002 109.26 293.072 112.123C296.072 114.986 299.491 117.359 303.328 119.314C307.096 121.199 311.003 122.736 314.91 123.922C318.817 125.109 322.585 126.017 326.283 126.645C329.981 127.344 333.19 127.902 335.981 128.391C340.167 129.089 344.144 129.927 347.981 130.765C351.819 131.602 355.167 132.65 358.028 133.907C360.889 135.163 363.121 136.699 364.865 138.584C366.54 140.469 367.447 142.774 367.447 145.496C367.447 147.591 366.889 149.686 365.772 151.85C364.656 154.014 362.912 155.899 360.679 157.575C358.377 159.251 355.656 160.577 352.377 161.625C349.097 162.672 345.4 163.091 341.144 163.091C340.167 163.091 338.632 163.091 338.004 163.091H298.375C291.816 163.091 286.514 168.397 286.514 174.96C286.514 181.523 291.816 186.829 298.375 186.829H337.446C338.562 186.829 339.888 186.829 341.074 186.829C348.888 186.829 356.074 185.991 362.493 184.246C368.912 182.5 374.494 179.987 379.168 176.636C383.843 173.284 387.471 169.025 389.983 163.859C392.494 158.692 393.75 152.688 393.75 145.706C393.75 139.701 392.843 134.605 391.029 130.416Z" fill="#100639"/>
<path d="M481.095 64.3747C481.095 59.9761 482.63 56.1361 485.63 52.9244C488.7 49.6429 492.537 48.0371 497.212 48.0371C501.886 48.0371 505.793 49.5731 509.003 52.715C512.212 55.8568 513.747 59.6969 513.747 64.4446C513.747 69.1922 512.142 73.0323 509.003 76.1741C505.793 79.316 501.886 80.852 497.212 80.852C492.537 80.852 488.7 79.2462 485.63 75.9647C482.56 72.6832 481.095 68.913 481.095 64.5144V64.3747ZM497.351 99.7362C504.398 99.7362 510.189 105.392 510.189 112.513V174.103C510.189 181.155 504.468 186.88 497.421 186.88C490.374 186.88 484.653 181.155 484.653 174.103V112.513C484.653 105.531 490.304 99.806 497.281 99.7362H497.351Z" fill="#100639"/>
<path d="M435.808 47.7412C442.855 47.7412 448.646 53.3965 448.646 60.5181V173.879C448.646 180.931 442.925 186.656 435.878 186.656C428.831 186.656 423.11 180.931 423.11 173.879V60.5181C423.11 53.5362 428.762 47.811 435.739 47.7412H435.808Z" fill="#100639"/>
<path d="M546.178 64.3747C546.178 59.9761 547.713 56.1361 550.713 52.9244C553.783 49.6429 557.62 48.0371 562.295 48.0371C566.969 48.0371 570.876 49.5731 574.086 52.715C577.295 55.8568 578.83 59.6969 578.83 64.4445C578.83 69.1922 577.225 73.0323 574.086 76.1741C570.876 79.316 566.969 80.852 562.295 80.852C557.62 80.852 553.783 79.2462 550.713 75.9647C547.643 72.6832 546.178 68.913 546.178 64.5144V64.3747ZM562.434 99.7362C569.481 99.7362 575.272 105.392 575.272 112.513V174.103C575.272 181.155 569.551 186.88 562.504 186.88C555.457 186.88 549.736 181.155 549.736 174.103V112.513C549.736 105.531 555.387 99.806 562.364 99.7362H562.434Z" fill="#100639"/>
<path d="M154.959 78.4161C183.533 49.1991 162.833 0 121.966 0H78.3659C56.7087 0 37.1293 8.7713 22.9457 22.9466C13.4189 32.4982 6.32298 44.4971 2.71755 57.8922C2.69291 57.9744 2.66006 58.0565 2.66006 58.1304C-0.165154 70.5893 8.17087 78.3586 19.7427 78.3586H153.283C153.842 78.3586 154.392 78.3997 154.95 78.4079L154.959 78.4161Z" fill="url(#paint0_linear_186_1954)"/>
<path d="M211.907 156.725H78.3667C49.4475 185.644 69.9293 235.091 110.827 235.091H153.284C174.917 235.091 194.521 226.32 208.704 212.145C218.198 202.651 225.278 190.734 228.883 177.363C228.941 177.232 228.965 177.092 228.99 176.961C231.815 164.502 223.446 156.733 211.907 156.733V156.725Z" fill="url(#paint1_linear_186_1954)"/>
<path d="M228.99 176.962C231.815 164.503 223.446 156.734 211.907 156.734H78.3668C51.7572 156.734 28.2521 143.47 14.1014 123.217C5.21515 110.512 0 95.0471 0 78.3669C0 71.3695 0.911624 64.594 2.66096 58.1387C-0.164257 70.5975 8.17176 78.3669 19.7436 78.3669H153.284C179.894 78.3669 203.399 91.6306 217.55 111.883C226.428 124.58 231.643 140.053 231.643 156.725C231.643 163.723 230.731 170.498 228.982 176.954L228.99 176.962Z" fill="url(#paint2_linear_186_1954)"/>
<g style="mix-blend-mode:multiply" opacity="0.5">
<path d="M229.009 176.963C231.835 164.504 223.466 156.734 211.927 156.734H78.3854C78.3854 156.734 75 160 71.5 165.5C68 171 66.5 177.107 66.5 177.107H189.448C216.739 177.107 223.531 174.17 224.254 189.955C226.135 185.931 227.72 181.734 228.894 177.365C228.952 177.234 228.976 177.094 229.001 176.963H229.009Z" fill="url(#paint3_linear_186_1954)" fill-opacity="0.5"/>
</g>
<path style="mix-blend-mode:multiply" opacity="0.4" d="M34.718 59.2177C6.4493 59.2177 4.97919 52.4718 4.90528 51.207C4.10042 53.3999 3.34483 55.6173 2.73708 57.8923C2.71244 57.9744 2.67959 58.0566 2.67959 58.1305C-0.145634 70.5894 8.19043 78.3588 19.7624 78.3588H153.304C153.862 78.3588 154.412 78.3998 154.971 78.408L158.5 74.5L162 69C164.5 64.5 166.5 59.2095 166.5 59.2095H34.718V59.2177Z" fill="url(#paint4_linear_186_1954)" fill-opacity="0.7"/>
<defs>
<linearGradient id="paint0_linear_186_1954" x1="1.95518" y1="78.0951" x2="196.548" y2="1.37089e-05" gradientUnits="userSpaceOnUse">
<stop stop-color="#4D58F2"/>
<stop offset="1" stop-color="#20C9EE"/>
</linearGradient>
<linearGradient id="paint1_linear_186_1954" x1="53.5883" y1="234.93" x2="229.643" y2="156.514" gradientUnits="userSpaceOnUse">
<stop stop-color="#FF1C66"/>
<stop offset="1" stop-color="#A31CBF"/>
</linearGradient>
<linearGradient id="paint2_linear_186_1954" x1="231.723" y1="176.844" x2="-8.37148" y2="70.9959" gradientUnits="userSpaceOnUse">
<stop stop-color="#8B16D2"/>
<stop offset="1" stop-color="#4D5BF1"/>
</linearGradient>
<linearGradient id="paint3_linear_186_1954" x1="147.982" y1="156.734" x2="147.818" y2="177.166" gradientUnits="userSpaceOnUse">
<stop stop-color="#8C108F"/>
<stop offset="1" stop-opacity="0"/>
</linearGradient>
<linearGradient id="paint4_linear_186_1954" x1="121.356" y1="64.5414" x2="121.356" y2="78.0951" gradientUnits="userSpaceOnUse">
<stop stop-color="white"/>
<stop offset="1" stop-color="#1E38BF"/>
</linearGradient>
</defs>
</svg>
