<svg width="923" height="264" viewBox="0 0 923 264" fill="none" xmlns="http://www.w3.org/2000/svg">
<path d="M332.063 177.32C332.063 182.487 332.993 187.343 334.853 191.89C336.713 196.23 339.193 200.053 342.293 203.36C345.6 206.667 349.423 209.25 353.763 211.11C358.31 212.97 363.167 213.9 368.333 213.9C373.293 213.9 377.943 212.97 382.283 211.11C386.83 209.25 390.653 206.667 393.753 203.36C397.06 200.053 399.643 196.23 401.503 191.89C403.57 187.55 404.603 182.9 404.603 177.94C404.603 172.98 403.57 168.33 401.503 163.99C399.643 159.443 397.06 155.517 393.753 152.21C390.653 148.903 386.83 146.32 382.283 144.46C377.943 142.6 373.293 141.67 368.333 141.67C363.167 141.67 358.31 142.6 353.763 144.46C349.423 146.32 345.6 148.903 342.293 152.21C339.193 155.517 336.713 159.34 334.853 163.68C332.993 167.813 332.063 172.36 332.063 177.32ZM402.743 98.27H459.163V257.3H402.743V239.63C390.757 254.717 374.533 262.26 354.073 262.26C342.5 262.26 331.857 260.193 322.143 256.06C312.43 251.72 303.957 245.727 296.723 238.08C289.49 230.433 283.807 221.443 279.673 211.11C275.747 200.777 273.783 189.513 273.783 177.32C273.783 165.953 275.747 155.207 279.673 145.08C283.6 134.747 289.077 125.757 296.103 118.11C303.13 110.463 311.5 104.47 321.213 100.13C330.927 95.5833 341.673 93.31 353.453 93.31C373.293 93.31 389.723 100.233 402.743 114.08V98.27Z" fill="white"/>
<path d="M617.316 149.73C607.603 143.117 597.786 139.81 587.866 139.81C582.493 139.81 577.43 140.74 572.676 142.6C568.13 144.46 564.1 147.147 560.587 150.66C557.073 153.967 554.283 157.997 552.217 162.75C550.357 167.297 549.426 172.463 549.426 178.25C549.426 183.83 550.357 188.997 552.217 193.75C554.283 198.297 556.97 202.327 560.277 205.84C563.79 209.147 567.923 211.73 572.676 213.59C577.43 215.45 582.493 216.38 587.866 216.38C598.406 216.38 608.223 212.763 617.316 205.53V253.27C603.47 259.263 590.347 262.26 577.947 262.26C566.373 262.26 555.317 260.297 544.777 256.37C534.443 252.443 525.246 246.863 517.186 239.63C509.333 232.19 503.03 223.407 498.276 213.28C493.523 202.947 491.146 191.477 491.146 178.87C491.146 166.263 493.42 154.793 497.966 144.46C502.513 133.92 508.713 124.93 516.566 117.49C524.42 109.843 533.72 103.953 544.467 99.82C555.42 95.48 567.096 93.31 579.496 93.31C593.136 93.31 605.743 96.2033 617.316 101.99V149.73Z" fill="white"/>
<path d="M657.19 0H713.3V118.42C720.947 109.12 728.697 102.92 736.55 99.82C744.404 96.5133 753.6 94.86 764.14 94.86C784.187 94.86 799.274 100.44 809.4 111.6C819.734 122.553 824.9 137.433 824.9 156.24V257.3H768.79V177.01C768.79 168.95 768.17 162.44 766.93 157.48C765.69 152.52 763.624 148.697 760.73 146.01C755.77 141.67 749.777 139.5 742.75 139.5C733.244 139.5 725.907 142.393 720.74 148.18C715.78 153.76 713.3 161.82 713.3 172.36V257.3H657.19V0Z" fill="white"/>
<path d="M919.16 98.27V257.3H863.05V98.27H919.16ZM859.33 37.2C859.33 32.86 860.156 28.83 861.81 25.11C863.463 21.1833 865.736 17.7733 868.63 14.88C871.523 11.9867 874.83 9.71333 878.55 8.06001C882.476 6.40667 886.61 5.58 890.95 5.58C895.29 5.58 899.32 6.40667 903.04 8.06001C906.966 9.71333 910.376 11.9867 913.27 14.88C916.163 17.7733 918.436 21.1833 920.09 25.11C921.743 28.83 922.57 32.86 922.57 37.2C922.57 41.54 921.743 45.6733 920.09 49.6C918.436 53.32 916.163 56.6267 913.27 59.52C910.376 62.4133 906.966 64.6867 903.04 66.34C899.32 67.9933 895.29 68.82 890.95 68.82C886.61 68.82 882.476 67.9933 878.55 66.34C874.83 64.6867 871.523 62.4133 868.63 59.52C865.736 56.6267 863.463 53.32 861.81 49.6C860.156 45.6733 859.33 41.54 859.33 37.2Z" fill="white"/>
<path d="M133.021 145.2V263.5C196.58 258.921 246.704 207.799 247 145.2H133.021Z" fill="white"/>
<path fill-rule="evenodd" clip-rule="evenodd" d="M133 213.692C167.662 209.218 194.757 180.599 196.868 145.25H246.921C244.691 208.227 195.307 259.2 133 263.94V213.692ZM108 212.662C74.8505 205.547 50 176.075 50 140.8C50 100.207 82.9071 67.2998 123.5 67.2998C144.102 67.2998 162.725 75.7763 176.07 89.432L209.428 52.0944C187.198 30.5563 156.897 17.2998 123.5 17.2998C55.2928 17.2998 0 72.5926 0 140.8C0 203.757 47.1091 255.712 108 263.337V212.662Z" fill="white"/>
</svg>
