<svg width="1186" height="166" viewBox="0 0 1186 166" fill="none" xmlns="http://www.w3.org/2000/svg">
<path d="M0.23 158.93C0.23 161.23 2.3 163.3 4.6 163.3C6.9 163.3 31.97 148.3 31.97 148.3C34 147 36.34 146.23 36.34 143.93V73.14H36.57L127.42 164.45C127.88 164.91 129.72 165.6 130.41 165.6H134.09C136.39 165.6 138.46 163.76 138.46 161.46V6.67C138.46 4.37 136.39 2.3 134.09 2.3H106.49C103.96 2.3 102.12 4.37 102.12 6.67V88.32H101.89L10.12 0H4.37C2.07 0 0 1.84001 0 4.14001L0.23 158.93Z" fill="white"/>
<path d="M171.221 158.93C171.221 161.23 173.061 163.3 175.591 163.3C178.121 163.3 202.731 148.3 202.731 148.3C205 147 207.101 146.23 207.101 143.93V103.04H244.541C246.841 103.04 248 100.5 248.911 98.67L263.911 73.6C263.911 71.3 261.841 69.23 259.541 69.23H207.101V36.11H270.811C273.341 36.11 275.181 34.04 275.181 31.74V6.67C275.181 4.37 273.341 2.3 270.811 2.3H175.591C173.061 2.3 171.221 4.37 171.221 6.67V158.93Z" fill="white"/>
<path d="M307.72 158.93C307.72 161.23 309.79 163.3 312.09 163.3C314.39 163.3 339.69 148.3 339.69 148.3C342 147 344.06 146.23 344.06 143.93V36.11H361.95C364.48 36.11 364.5 34 366.32 31.74C366.32 31.74 381.32 8.97 381.32 6.67C381.32 4.37 379.48 2.3 376.95 2.3H274.83C272.3 2.3 270.46 4.37 270.46 6.67V31.74C270.46 34.04 272.3 36.11 274.83 36.11H307.72V158.93Z" fill="white"/>
<path d="M663.014 158.93C663.014 161.23 665.084 163.3 667.384 163.3C669.684 163.3 694.984 148.3 694.984 148.3C697.5 147 699.354 146.23 699.354 143.93V36.11H717.244C719.774 36.11 720 34 721.5 32C721.5 32 736.614 8.97 736.614 6.67C736.614 4.37 734.774 2.3 732.244 2.3H630.124C627.594 2.3 625.754 4.37 625.754 6.67V31.74C625.754 34.04 627.594 36.11 630.124 36.11H663.014V158.93Z" fill="white"/>
<path d="M734.46 163.3H759.76C764.36 163.3 766.89 160.54 768.04 157.78L776.32 139.38H838.88L847.16 157.55C849.23 161.92 851.07 163.3 855.21 163.3H880.74C884.19 163.3 886.03 160.31 884.65 157.32L812.66 2.53C811.97 1.15 810.36 0 808.75 0H806.45C804.84 0 803.23 1.15 802.54 2.53L730.55 157.32C729.17 160.31 731.01 163.3 734.46 163.3ZM790.12 108.1L807.37 70.15H807.6L825.08 108.1H790.12Z" fill="white"/>
<path d="M903.535 157.78C903.535 160.77 905.835 163.3 909.055 163.3C912.275 163.3 935.965 148.3 935.965 148.3C938.5 147 941.485 145.77 941.485 142.78V89.24L994.615 161.46C995.075 162.15 997.145 163.07 998.755 163.07H1030.49C1034.86 163.07 1037.39 158.01 1034.86 154.56L976.215 78.2L1030.03 10.81C1032.56 7.36 1030.26 2.3 1025.89 2.3H996.915C995.535 2.3 993.465 3.45 992.545 4.6L941.485 68.31V7.82C941.485 4.83001 938.955 2.3 935.965 2.3H909.055C905.835 2.3 903.535 4.83001 903.535 7.82V157.78Z" fill="white"/>
<path d="M1054.87 101.66C1054.87 136.62 1084.08 165.6 1120.19 165.6C1156.53 165.6 1185.97 136.62 1185.97 101.66V6.67C1185.97 4.37 1183.9 2.3 1181.6 2.3H1153.31C1150.78 2.3 1148.94 4.37 1148.94 6.67V99.82C1148.94 115.92 1136.75 128.8 1120.19 128.8C1103.86 128.8 1091.9 115.92 1091.9 99.82V6.67C1091.9 4.37 1090.06 2.3 1087.53 2.3H1059.24C1056.94 2.3 1054.87 4.37 1054.87 6.67V101.66Z" fill="white"/>
<path d="M574 57C574 66.3888 566.389 74 557 74C547.611 74 540 66.3888 540 57C540 47.6112 547.611 40 557 40C566.389 40 574 47.6112 574 57Z" fill="white"/>
<path d="M451 83.03C451 129.03 487.57 165.6 533.57 165.6C579.57 165.6 616.37 129.03 616.37 83.03C616.37 37.03 579.57 0 533.57 0C487.57 0 451 37.03 451 83.03ZM487.8 83.03C487.8 57.73 508.5 36.8 533.57 36.8C558.87 36.8 579.57 57.73 579.57 83.03C579.57 108.1 558.87 128.8 533.57 128.8C508.5 128.8 487.8 108.1 487.8 83.03Z" fill="white"/>
</svg>
